<?xml version="1.0" encoding="utf-8"?>
<!-- Generator: Adobe Illustrator 19.1.0, SVG Export Plug-In . SVG Version: 6.00 Build 0)  -->
<svg version="1.1" id="レイヤー_1" xmlns="http://www.w3.org/2000/svg" xmlns:xlink="http://www.w3.org/1999/xlink" x="0px"
	 y="0px" viewBox="-259 382.9 76 76" style="enable-background:new -259 382.9 76 76;" xml:space="preserve">
<style type="text/css">
	.st0{fill:#FFFFFF;stroke:#E54242;stroke-width:3.145;stroke-linecap:round;stroke-linejoin:round;stroke-miterlimit:10;}
	.st1{fill:none;stroke:#808080;stroke-width:3.145;stroke-linejoin:round;stroke-miterlimit:10;}
	.st2{fill:none;stroke:#E54242;stroke-width:3.145;stroke-linecap:round;stroke-linejoin:round;stroke-miterlimit:10;}
	.st3{fill:none;stroke:#808080;stroke-width:3.145;stroke-linecap:round;stroke-linejoin:round;stroke-miterlimit:10;}
</style>
<path class="st0" d="M-186.3,405.4v-12c0-3.3-2.7-6-6-6h-57.3c-3.3,0-6,2.7-6,6v39.2c0,3.3,2.7,6,6,6h30.1"/>
<line class="st1" x1="-254" y1="429.5" x2="-219.5" y2="429.5"/>
<path class="st0" d="M-221,438.6c-5,0-9,4.1-9,9h9"/>
<path class="st0" d="M-213.5,399.4c-3.3,0-6,2.7-6,6v42.2c0,3.3,2.7,6,6,6h21.1c3.3,0,6-2.7,6-6v-42.2c0-3.3-2.7-6-6-6H-213.5z"/>
<line class="st2" x1="-186.3" y1="408.4" x2="-219.5" y2="408.4"/>
<line class="st2" x1="-186.3" y1="435.6" x2="-219.5" y2="435.6"/>
<circle class="st3" cx="-202.9" cy="444.6" r="3"/>
</svg>
