<?xml version="1.0" encoding="utf-8"?>
<!-- Generator: Adobe Illustrator 19.1.0, SVG Export Plug-In . SVG Version: 6.00 Build 0)  -->
<svg version="1.1" id="レイヤー_1" xmlns="http://www.w3.org/2000/svg" xmlns:xlink="http://www.w3.org/1999/xlink" x="0px"
	 y="0px" viewBox="-259 382.9 76 76" style="enable-background:new -259 382.9 76 76;" xml:space="preserve">
<style type="text/css">
	.st0{fill:none;stroke:#F1AE2D;stroke-width:3.145;stroke-linecap:round;stroke-linejoin:round;stroke-miterlimit:10;}
	.st1{fill:#FFFFFF;stroke:#808080;stroke-width:3.145;stroke-linecap:round;stroke-linejoin:round;stroke-miterlimit:10;}
	.st2{fill:#FFFFFF;stroke:#F1AE2D;stroke-width:3.145;stroke-linecap:round;stroke-linejoin:round;stroke-miterlimit:10;}
</style>
<g>
	<g>
		<g>
			<circle class="st0" cx="-230.2" cy="411.6" r="26.6"/>
			<path class="st1" d="M-230.2,431.9c-11.2,0-20.4-9.1-20.4-20.3c0-11.2,9.1-20.4,20.4-20.4s20.4,9.1,20.4,20.4
				C-209.9,422.8-219,431.9-230.2,431.9z"/>
		</g>
		<circle class="st0" cx="-231.8" cy="402.2" r="4.7"/>
	</g>
	<path class="st2" d="M-193.4,455.5c2,2,5.1,2,7.1,0s2-5.2,0-7.1l-11.9-11.9c-2-2-5.1-2-7.1,0s-2,5.2,0,7.1L-193.4,455.5z"/>
	<line class="st0" x1="-205.3" y1="436.5" x2="-211.4" y2="430.4"/>
</g>
</svg>
