<?xml version="1.0" encoding="utf-8"?>
<!-- Generator: Adobe Illustrator 19.1.0, SVG Export Plug-In . SVG Version: 6.00 Build 0)  -->
<svg version="1.1" xmlns="http://www.w3.org/2000/svg" xmlns:xlink="http://www.w3.org/1999/xlink" x="0px" y="0px"
	 viewBox="0 0 45 60" style="enable-background:new 0 0 45 60;" xml:space="preserve">
<style type="text/css">
	.st0{fill:none;stroke:#FFFFFF;stroke-width:3.145;stroke-linecap:round;stroke-linejoin:round;stroke-miterlimit:10;}
</style>
<g id="レイヤー_2">
</g>
<g id="レイヤー_1">
	<g>
		<polyline class="st0" points="29.5,14 38,14 38,52.7 6.6,52.7 6.6,14 15,14 		"/>
		<g>
			<path class="st0" d="M15,6.8H6.6c-2.7,0-4.8,2.2-4.8,4.8v41.1c0,2.7,2.2,4.8,4.8,4.8H38c2.7,0,4.8-2.2,4.8-4.8V11.6
				c0-2.7-2.2-4.8-4.8-4.8h-8.5"/>
			<circle class="st0" cx="22.3" cy="6.8" r="4.8"/>
			<path class="st0" d="M27.1,6.8h2.4V14c2.7,0,4.8,2.2,4.8,4.8H10.2c0-2.7,2.2-4.8,4.8-4.8V6.8h2.4"/>
		</g>
	</g>
</g>
</svg>
