<?xml version="1.0" encoding="utf-8"?>
<!-- Generator: Adobe Illustrator 19.1.0, SVG Export Plug-In . SVG Version: 6.00 Build 0)  -->
<svg version="1.1" id="レイヤー_1" xmlns="http://www.w3.org/2000/svg" xmlns:xlink="http://www.w3.org/1999/xlink" x="0px"
	 y="0px" viewBox="-172 340.9 250 160" style="enable-background:new -172 340.9 250 160;" xml:space="preserve">
<style type="text/css">
	.st0{fill:#FFFFFF;stroke:#808080;stroke-width:3.189;stroke-linecap:round;stroke-linejoin:round;stroke-miterlimit:10;}
	.st1{fill:none;stroke:#808080;stroke-width:3.189;stroke-linecap:round;stroke-linejoin:round;stroke-miterlimit:10;}
	.st2{fill:#FFFFFF;stroke:#E54242;stroke-width:3.189;stroke-linecap:round;stroke-linejoin:round;stroke-miterlimit:10;}
	.st3{fill:none;stroke:#E54242;stroke-width:3.189;stroke-linecap:round;stroke-linejoin:round;stroke-miterlimit:10;}
	.st4{display:none;}
	
		.st5{display:inline;fill:none;stroke:#808080;stroke-width:3.189;stroke-linecap:round;stroke-linejoin:round;stroke-miterlimit:10;}
	
		.st6{display:inline;fill:none;stroke:#F1AE2D;stroke-width:3.189;stroke-linecap:round;stroke-linejoin:round;stroke-miterlimit:10;}
</style>
<g id="レイヤー_1_1_">
	<path class="st0" d="M-15.7,439.6c0-3.2-2.6-5.7-5.7-5.7h-54.5c-3.2,0-5.7,2.6-5.7,5.7v40.2c0,3.2,2.6,5.7,5.7,5.7h54.5
		c3.2,0,5.7-2.6,5.7-5.7V439.6z"/>
	<line class="st1" x1="-81.7" y1="476.9" x2="-15.7" y2="476.9"/>
	<path class="st1" d="M-40.1,494.1c0-4.8-3.9-8.6-8.6-8.6c-4.8,0-8.6,3.9-8.6,8.6H-40.1z"/>
	<g>
		<g>
			<path class="st2" d="M-5.4,422.3h-17.2c-3.2,0-5.7-2.6-5.7-5.7v-17.2c0-3.2,2.6-5.7,5.7-5.7H9c3.2,0,5.7,2.6,5.7,5.7v11.5"/>
		</g>
		<line class="st3" x1="6.1" y1="405.1" x2="-19.7" y2="405.1"/>
		<line class="st3" x1="-9.7" y1="410.9" x2="-19.7" y2="410.9"/>
	</g>
	<g>
		<g>
			<path class="st2" d="M3.2,439.6h28.7c3.2,0,5.7-2.6,5.7-5.7v-17.3c0-3.2-2.6-5.7-5.7-5.7H0.3c-3.2,0-5.7,2.6-5.7,5.7v31.6
				L3.2,439.6z"/>
		</g>
		<line class="st3" x1="3.2" y1="422.3" x2="29.1" y2="422.3"/>
		<line class="st3" x1="3.2" y1="428.1" x2="29.1" y2="428.1"/>
	</g>
	<g>
		<g>
			<path class="st2" d="M-77.4,394.1h17.2c3.2,0,5.7-2.6,5.7-5.7v-17.2c0-3.2-2.6-5.7-5.7-5.7h-31.5c-3.2,0-5.7,2.6-5.7,5.7v12.5"/>
		</g>
		<line class="st3" x1="-88.8" y1="376.9" x2="-63" y2="376.9"/>
		<line class="st3" x1="-73.1" y1="382.7" x2="-63" y2="382.7"/>
	</g>
	<g>
		<g>
			<path class="st2" d="M-99.7,454.3h-28.7c-3.2,0-5.7-2.6-5.7-5.7v-17.3c0-3.2,2.6-5.7,5.7-5.7h31.6c3.2,0,5.7,2.6,5.7,5.7v31.6
				L-99.7,454.3z"/>
		</g>
		<line class="st3" x1="-99.7" y1="437" x2="-125.6" y2="437"/>
		<line class="st3" x1="-99.7" y1="442.8" x2="-125.6" y2="442.8"/>
	</g>
	<g>
		<g>
			<path class="st2" d="M-87.4,413.2h-28.7c-3.2,0-5.7-2.6-5.7-5.7v-17.2c0-3.2,2.6-5.7,5.7-5.7h31.6c3.2,0,5.7,2.6,5.7,5.7v31.6
				L-87.4,413.2z"/>
		</g>
		<line class="st3" x1="-87.4" y1="396" x2="-113.2" y2="396"/>
		<line class="st3" x1="-87.4" y1="401.7" x2="-113.2" y2="401.7"/>
	</g>
	<line class="st1" x1="20.9" y1="363.4" x2="15.4" y2="379.5"/>
	<line class="st1" x1="39.8" y1="374.3" x2="26.6" y2="384.9"/>
	<line class="st1" x1="48.3" y1="397.4" x2="31.3" y2="396.5"/>
	<line class="st1" x1="-167.7" y1="426.7" x2="-150.6" y2="426.9"/>
	<line class="st1" x1="-163.2" y1="405.3" x2="-149" y2="414.7"/>
	<line class="st1" x1="-143.8" y1="390.1" x2="-139.4" y2="406.6"/>
</g>
<g id="レイヤー_2" class="st4">
	<path class="st5" d="M-161.1,364.5c0,11.5,9.3,20.8,20.8,20.8s20.8-9.3,20.8-20.8s-9.3-20.8-20.8-20.8S-161.1,353-161.1,364.5z"/>
	<path class="st5" d="M-154.7,380.5h-6.4c-3.5,0-6.4,2.9-6.4,6.4v24c0,3.5,2.9,6.4,6.4,6.4h41.6c3.5,0,6.4-2.9,6.4-6.4v-24
		c0-3.5-2.9-6.4-6.4-6.4h-7.5"/>
	<path class="st6" d="M-122.7,398v-4.8h-9.6v4.8c0,2.6,2.1,4.8,4.8,4.8C-124.8,402.8-122.7,400.7-122.7,398z"/>
</g>
</svg>
