<?xml version="1.0" encoding="utf-8"?>
<!-- Generator: Adobe Illustrator 19.1.0, SVG Export Plug-In . SVG Version: 6.00 Build 0)  -->
<svg version="1.1" id="レイヤー_1" xmlns="http://www.w3.org/2000/svg" xmlns:xlink="http://www.w3.org/1999/xlink" x="0px"
	 y="0px" viewBox="-172 340.9 250 160" style="enable-background:new -172 340.9 250 160;" xml:space="preserve">
<style type="text/css">
	.st0{display:none;}
	
		.st1{display:inline;fill:none;stroke:#E54242;stroke-width:3.1886;stroke-linecap:round;stroke-linejoin:round;stroke-miterlimit:10;}
	.st2{display:inline;}
	.st3{fill:none;stroke:#E54242;stroke-width:3.1886;stroke-linecap:round;stroke-linejoin:round;stroke-miterlimit:10;}
	
		.st4{display:inline;fill:none;stroke:#808080;stroke-width:3.1886;stroke-linecap:round;stroke-linejoin:round;stroke-miterlimit:10;}
	.st5{fill:none;stroke:#808080;stroke-width:3.189;stroke-linecap:round;stroke-linejoin:round;stroke-miterlimit:10;}
	.st6{fill:#FFFFFF;stroke:#808080;stroke-width:3.189;stroke-linecap:round;stroke-linejoin:round;stroke-miterlimit:10;}
	.st7{fill:none;stroke:#7DA4CD;stroke-width:3.189;stroke-linecap:round;stroke-linejoin:round;stroke-miterlimit:10;}
</style>
<g id="レイヤー_1_1_" class="st0">
	<line class="st1" x1="-72.1" y1="474.9" x2="1.2" y2="474.9"/>
	<path class="st1" d="M-25.9,494.1c0-5.3-4.3-9.6-9.6-9.6s-9.6,4.3-9.6,9.6H-25.9z"/>
	<path class="st1" d="M1.2,433.5c0-3.5-2.9-6.4-6.4-6.4h-60.6c-3.5,0-6.4,2.9-6.4,6.4v44.6c0,3.5,2.9,6.4,6.4,6.4h60.6
		c3.5,0,6.4-2.9,6.4-6.4V433.5z"/>
	<g class="st2">
		<g>
			<path class="st3" d="M12.6,414.4H-6.5c-3.5,0-6.4-2.9-6.4-6.4v-19.1c0-3.5,2.9-6.4,6.4-6.4h35.1c3.5,0,6.4,2.9,6.4,6.4v12.8"/>
		</g>
		<line class="st3" x1="25.4" y1="395.2" x2="-3.3" y2="395.2"/>
		<line class="st3" x1="7.9" y1="401.6" x2="-3.3" y2="401.6"/>
	</g>
	<g class="st2">
		<g>
			<path class="st3" d="M22.2,433.5h31.9c3.5,0,6.4-2.9,6.4-6.4V408c0-3.5-2.9-6.4-6.4-6.4H19c-3.5,0-6.4,2.9-6.4,6.4v35.1
				L22.2,433.5z"/>
		</g>
		<line class="st3" x1="22.2" y1="414.4" x2="50.9" y2="414.4"/>
		<line class="st3" x1="22.2" y1="420.7" x2="50.9" y2="420.7"/>
	</g>
	<g class="st2">
		<g>
			<path class="st3" d="M-67.3,383h19.1c3.5,0,6.4-2.9,6.4-6.4v-19.1c0-3.5-2.9-6.4-6.4-6.4h-35.1c-3.5,0-6.4,2.9-6.4,6.4v13.9"/>
		</g>
		<line class="st3" x1="-80.1" y1="363.9" x2="-51.4" y2="363.9"/>
		<line class="st3" x1="-62.5" y1="370.3" x2="-51.4" y2="370.3"/>
	</g>
	<g class="st2">
		<g>
			<path class="st3" d="M-92.2,449.8h-31.9c-3.5,0-6.4-2.9-6.4-6.4v-19.1c0-3.5,2.9-6.4,6.4-6.4H-89c3.5,0,6.4,2.9,6.4,6.4v35.1
				L-92.2,449.8z"/>
		</g>
		<line class="st3" x1="-92.2" y1="430.7" x2="-120.9" y2="430.7"/>
		<line class="st3" x1="-92.2" y1="437.1" x2="-120.9" y2="437.1"/>
	</g>
	<g class="st2">
		<g>
			<path class="st3" d="M-78.5,404.2h-31.9c-3.5,0-6.4-2.9-6.4-6.4v-19.1c0-3.5,2.9-6.4,6.4-6.4h35.1c3.5,0,6.4,2.9,6.4,6.4v35.1
				L-78.5,404.2z"/>
		</g>
		<line class="st3" x1="-78.5" y1="385.1" x2="-107.2" y2="385.1"/>
		<line class="st3" x1="-78.5" y1="391.5" x2="-107.2" y2="391.5"/>
	</g>
	<line class="st4" x1="41.9" y1="348.9" x2="35.8" y2="366.8"/>
	<line class="st4" x1="62.9" y1="360.9" x2="48.1" y2="372.8"/>
	<line class="st4" x1="72.3" y1="386.6" x2="53.4" y2="385.6"/>
	<line class="st4" x1="-167.7" y1="419.2" x2="-148.7" y2="419.5"/>
	<line class="st4" x1="-162.7" y1="395.5" x2="-146.9" y2="405.9"/>
	<line class="st4" x1="-141.2" y1="378.6" x2="-136.3" y2="396.8"/>
</g>
<g id="レイヤー_2">
	<g>
		<circle class="st5" cx="-87.2" cy="465.1" r="33.4"/>
		<path class="st6" d="M-87.2,492.8c-15.2,0-27.6-12.4-27.6-27.6s12.4-27.6,27.6-27.6s27.6,12.4,27.6,27.6S-71.9,492.8-87.2,492.8z"
			/>
		<g>
			<g>
				<line class="st7" x1="-78.2" y1="456.6" x2="-84.5" y2="462.9"/>
			</g>
			<g>
				<line class="st7" x1="-87.2" y1="446.4" x2="-87.2" y2="461.5"/>
			</g>
			<circle class="st7" cx="-87.2" cy="465.1" r="2.9"/>
		</g>
	</g>
	<g>
		<path class="st6" d="M-23.2,498.6c-3.2,0-5.8-2.6-5.8-5.8v-55.3c0-3.2,2.6-5.8,5.8-5.8h43.6c3.2,0,5.8,2.6,5.8,5.8v55.2
			c0,3.2-2.6,5.8-5.8,5.8L-23.2,498.6L-23.2,498.6z"/>
		<rect x="-20.3" y="443.3" class="st7" width="37.8" height="11.6"/>
		<circle class="st5" cx="-16" cy="468" r="4.4"/>
		<circle class="st5" cx="-1.4" cy="468" r="4.4"/>
		<circle class="st5" cx="13.1" cy="468" r="4.4"/>
		<circle class="st5" cx="-16" cy="482.6" r="4.4"/>
		<circle class="st5" cx="-1.4" cy="482.6" r="4.4"/>
		<circle class="st5" cx="13.1" cy="482.6" r="4.4"/>
	</g>
	<g>
		<g>
			<path class="st6" d="M-72.8,369.5c0-14.2,11.5-25.8,25.8-25.8s25.8,11.5,25.8,25.8c0,28.6-25.8,43.9-25.8,43.9
				S-72.8,401.2-72.8,369.5z"/>
		</g>
		<path class="st7" d="M-59.1,369.5c0,6.7,5.4,12.1,12.1,12.1s12.1-5.4,12.1-12.1c0-6.7-5.4-12.1-12.1-12.1
			C-53.7,357.3-59.1,362.8-59.1,369.5z"/>
	</g>
</g>
</svg>
