<?xml version="1.0" encoding="utf-8"?>
<!-- Generator: Adobe Illustrator 19.1.0, SVG Export Plug-In . SVG Version: 6.00 Build 0)  -->
<svg version="1.1" id="レイヤー_1" xmlns="http://www.w3.org/2000/svg" xmlns:xlink="http://www.w3.org/1999/xlink" x="0px"
	 y="0px" viewBox="0 0 90 90" style="enable-background:new 0 0 90 90;" xml:space="preserve">
<style type="text/css">
	.st0{fill:#7DA4CD;}
</style>
<polygon class="st0" points="45,3.2 48,7.5 51.5,3.7 53.8,8.4 57.9,5.2 59.4,10.2 64,7.7 64.6,12.9 69.5,11.2 69.4,16.4 74.5,15.4 
	73.6,20.5 78.8,20.4 77,25.3 82.2,26 79.7,30.5 84.7,32 81.5,36.1 86.2,38.4 82.5,42 86.8,44.9 82.5,47.9 86.2,51.4 81.5,53.7 
	84.7,57.8 79.7,59.3 82.2,63.9 77,64.5 78.8,69.4 73.6,69.3 74.5,74.4 69.4,73.5 69.5,78.7 64.6,76.9 64,82.1 59.4,79.6 57.9,84.6 
	53.8,81.4 51.5,86.1 48,82.4 45,86.6 42.1,82.4 38.5,86.1 36.2,81.4 32.1,84.6 30.6,79.6 26.1,82.1 25.4,76.9 20.5,78.7 20.6,73.5 
	15.5,74.4 16.5,69.3 11.3,69.4 13,64.5 7.8,63.9 10.3,59.3 5.3,57.8 8.5,53.7 3.8,51.4 7.6,47.9 3.3,44.9 7.6,42 3.8,38.4 8.5,36.1 
	5.3,32 10.3,30.5 7.8,26 13,25.3 11.3,20.4 16.5,20.5 15.5,15.4 20.6,16.4 20.5,11.2 25.4,12.9 26.1,7.7 30.6,10.2 32.1,5.2 
	36.2,8.4 38.5,3.7 42.1,7.5 "/>
</svg>
