<?xml version="1.0" encoding="utf-8"?>
<!-- Generator: Adobe Illustrator 19.1.0, SVG Export Plug-In . SVG Version: 6.00 Build 0)  -->
<svg version="1.1" id="レイヤー_1" xmlns="http://www.w3.org/2000/svg" xmlns:xlink="http://www.w3.org/1999/xlink" x="0px"
	 y="0px" viewBox="0 0 10 10" style="enable-background:new 0 0 10 10;" xml:space="preserve">
<style type="text/css">
	.st0{fill:none;}
	.st1{fill:#63A745;}
</style>
<g>
	<polygon class="st0" points="5.8,0 0,5.8 0,9.2 9.2,0 	"/>
	<polygon class="st0" points="0.8,0 0,0.8 0,4.2 4.2,0 	"/>
	<polygon class="st0" points="10,5.8 5.8,10 9.3,10 10,9.3 	"/>
	<polygon class="st0" points="10,0.8 0.8,10 4.3,10 10,4.3 	"/>
	<polygon class="st1" points="9.3,10 10,10 10,9.3 	"/>
	<polygon class="st1" points="10,0 10,0 9.2,0 0,9.2 0,10 0.8,10 10,0.8 	"/>
	<polygon class="st1" points="10,4.3 4.3,10 5.8,10 10,5.8 	"/>
	<polygon class="st1" points="4.2,0 0,4.2 0,5.8 5.8,0 	"/>
	<polygon class="st1" points="0,0 0,0.8 0.8,0 	"/>
</g>
</svg>
