<?xml version="1.0" encoding="utf-8"?>
<!-- Generator: Adobe Illustrator 19.1.0, SVG Export Plug-In . SVG Version: 6.00 Build 0)  -->
<svg version="1.1" id="レイヤー_1" xmlns="http://www.w3.org/2000/svg" xmlns:xlink="http://www.w3.org/1999/xlink" x="0px"
	 y="0px" viewBox="0 0 20 40" style="enable-background:new 0 0 20 40;" xml:space="preserve">
<style type="text/css">
	.st0{fill:#7DA4CD;}
	.st1{fill:none;stroke:#666666;stroke-width:0.7542;stroke-miterlimit:10;}
</style>
<g>
	<path class="st0" d="M10,20.2c-5.3,0-9.6,4.3-9.6,9.6c0,5.3,4.3,9.6,9.6,9.6c5.3,0,9.6-4.3,9.6-9.6C19.6,24.5,15.3,20.2,10,20.2
		L10,20.2z M8.5,34.2l-4.4-4.4l1.7-1.7l2.7,2.7l5.8-5.8l1.7,1.7L8.5,34.2z M8.5,34.2"/>
</g>
<g>
	<path class="st1" d="M10,0.6c-5.1,0-9.3,4.1-9.3,9.3c0,5.1,4.1,9.3,9.3,9.3c5.1,0,9.3-4.2,9.3-9.3C19.2,4.8,15.1,0.6,10,0.6L10,0.6
		z M8.5,14.2"/>
</g>
</svg>
