<?xml version="1.0" encoding="utf-8"?>
<!-- Generator: Adobe Illustrator 19.1.0, SVG Export Plug-In . SVG Version: 6.00 Build 0)  -->
<svg version="1.1" id="レイヤー_1" xmlns="http://www.w3.org/2000/svg" xmlns:xlink="http://www.w3.org/1999/xlink" x="0px"
	 y="0px" viewBox="-259 382.9 76 76" style="enable-background:new -259 382.9 76 76;" xml:space="preserve">
<style type="text/css">
	.st0{fill:#FFFFFF;stroke:#7DA4CD;stroke-width:3.2107;stroke-linecap:round;stroke-linejoin:round;stroke-miterlimit:10;}
	.st1{fill:none;stroke:#7DA4CD;stroke-width:3.2107;stroke-linecap:round;stroke-linejoin:round;stroke-miterlimit:10;}
	.st2{fill:#FFFFFF;stroke:#808080;stroke-width:3.2107;stroke-linecap:round;stroke-linejoin:round;stroke-miterlimit:10;}
</style>
<path class="st0" d="M-229,390.9h-11c-3.4,0-6.3,2.8-6.3,6.3v53.2c0,3.4,2.8,6.3,6.3,6.3h40.7c3.4,0,6.3-2.8,6.3-6.3v-53.2
	c0-3.4-2.8-6.3-6.3-6.3h-11"/>
<polyline class="st1" points="-210.3,400.3 -199.3,400.3 -199.3,450.4 -240,450.4 -240,400.3 -229,400.3 "/>
<path class="st2" d="M-213.4,390.9h3.1v9.4c3.5,0,6.3,2.8,6.3,6.3h-31.3c0-3.5,2.8-6.3,6.3-6.3v-9.4h3.1"/>
<circle class="st2" cx="-219.7" cy="390.9" r="6.3"/>
</svg>
