<?xml version="1.0" encoding="utf-8"?>
<!-- Generator: Adobe Illustrator 19.1.0, SVG Export Plug-In . SVG Version: 6.00 Build 0)  -->
<svg version="1.1" id="レイヤー_1" xmlns="http://www.w3.org/2000/svg" xmlns:xlink="http://www.w3.org/1999/xlink" x="0px"
	 y="0px" viewBox="-259 382.9 76 76" style="enable-background:new -259 382.9 76 76;" xml:space="preserve">
<style type="text/css">
	.st0{fill:#FFFFFF;stroke:#A3722D;stroke-width:3.145;stroke-linecap:round;stroke-linejoin:round;stroke-miterlimit:10;}
	.st1{fill:none;stroke:#808080;stroke-width:3.145;stroke-linecap:round;stroke-linejoin:round;stroke-miterlimit:10;}
</style>
<path class="st0" d="M-246.1,391.3c0-3.4,2.8-6.2,6.2-6.2h40c3.4,0,6.2,2.8,6.2,6.2v58.4c0,3.4-2.8,6.2-6.2,6.2H-240
	c-3.4,0-6.2-2.8-6.2-6.2L-246.1,391.3L-246.1,391.3z"/>
<g>
	<path class="st1" d="M-227.7,432.8c0,4.3,3.5,7.7,7.7,7.7c4.3,0,7.7-3.5,7.7-7.7c0-4.3-3.5-7.7-7.7-7.7
		C-224.3,425.1-227.7,428.6-227.7,432.8z"/>
	<polyline class="st1" points="-220.1,441 -228.8,449.7 -229.9,444.3 -235.4,443.2 -227.4,435.2 	"/>
	<polyline class="st1" points="-219.9,441 -211.2,449.7 -210.1,444.3 -204.6,443.2 -212.6,435.2 	"/>
</g>
<line class="st1" x1="-226.2" y1="400.5" x2="-213.8" y2="400.5"/>
<line class="st1" x1="-236.9" y1="406.7" x2="-203.1" y2="406.7"/>
<line class="st1" x1="-236.9" y1="412.8" x2="-203.1" y2="412.8"/>
</svg>
