<?xml version="1.0" encoding="utf-8"?>
<!-- Generator: Adobe Illustrator 19.1.0, SVG Export Plug-In . SVG Version: 6.00 Build 0)  -->
<svg version="1.1" id="レイヤー_1" xmlns="http://www.w3.org/2000/svg" xmlns:xlink="http://www.w3.org/1999/xlink" x="0px"
	 y="0px" viewBox="-270 383.9 55 74" style="enable-background:new -270 383.9 55 74;" xml:space="preserve">
<style type="text/css">
	.st0{fill:#FFFFFF;stroke:#808080;stroke-width:3.184;stroke-linecap:round;stroke-linejoin:round;stroke-miterlimit:10;}
	.st1{fill:none;stroke:#F1AE2D;stroke-width:3.184;stroke-linecap:round;stroke-linejoin:round;stroke-miterlimit:10;}
</style>
<path class="st0" d="M-255.9,420.9h-5.9c-3.3,0-5.9,2.7-5.9,5.9V449c0,3.3,2.7,5.9,5.9,5.9h38.4c3.3,0,5.9-2.7,5.9-5.9v-22.2
	c0-3.3-2.7-5.9-5.9-5.9h-6.9"/>
<path class="st0" d="M-261.8,406.1c0,10.6,8.6,19.2,19.2,19.2c10.6,0,19.2-8.6,19.2-19.2s-8.6-19.2-19.2-19.2
	C-253.2,386.9-261.8,395.5-261.8,406.1z"/>
<path class="st1" d="M-226.3,437.2v-4.4h-8.9v4.4c0,2.4,2,4.4,4.4,4.4C-228.3,441.6-226.3,439.6-226.3,437.2z"/>
</svg>
